<svg xmlns="http://www.w3.org/2000/svg" viewBox="0 0 214.16 408.99"><defs><style>.cls-1{fill:#0897e6;stroke:#fff;stroke-miterlimit:10;}</style></defs><title>Asset 19</title><g id="Layer_2" data-name="Layer 2"><g id="LANDING"><circle class="cls-1" cx="9.08" cy="9.08" r="8.58"/><circle class="cls-1" cx="74.81" cy="9.08" r="8.58"/><circle class="cls-1" cx="139.35" cy="9.08" r="8.58"/><circle class="cls-1" cx="205.08" cy="9.08" r="8.58"/><circle class="cls-1" cx="9.08" cy="73.03" r="8.58"/><circle class="cls-1" cx="74.81" cy="73.03" r="8.58"/><circle class="cls-1" cx="139.35" cy="73.03" r="8.58"/><circle class="cls-1" cx="205.08" cy="73.03" r="8.58"/><circle class="cls-1" cx="9.08" cy="139.33" r="8.58"/><circle class="cls-1" cx="74.81" cy="139.33" r="8.58"/><circle class="cls-1" cx="139.35" cy="139.33" r="8.58"/><circle class="cls-1" cx="205.08" cy="139.33" r="8.58"/><circle class="cls-1" cx="9.08" cy="203.28" r="8.58"/><circle class="cls-1" cx="74.81" cy="203.28" r="8.58"/><circle class="cls-1" cx="139.35" cy="203.28" r="8.58"/><circle class="cls-1" cx="205.08" cy="203.28" r="8.58"/><circle class="cls-1" cx="9.08" cy="269.57" r="8.58"/><circle class="cls-1" cx="74.81" cy="269.57" r="8.58"/><circle class="cls-1" cx="139.35" cy="269.57" r="8.58"/><circle class="cls-1" cx="205.08" cy="269.57" r="8.58"/><circle class="cls-1" cx="9.08" cy="333.52" r="8.58"/><circle class="cls-1" cx="74.81" cy="333.52" r="8.58"/><circle class="cls-1" cx="139.35" cy="333.52" r="8.58"/><circle class="cls-1" cx="205.08" cy="333.52" r="8.58"/><circle class="cls-1" cx="9.08" cy="399.91" r="8.58"/><circle class="cls-1" cx="74.81" cy="399.91" r="8.58"/><circle class="cls-1" cx="139.35" cy="399.91" r="8.58"/><circle class="cls-1" cx="205.08" cy="399.91" r="8.58"/></g></g></svg>