<svg xmlns="http://www.w3.org/2000/svg" viewBox="0 0 250.3 255.62"><defs><style>.cls-1{fill:#8083c5;}.cls-2{fill:#acb3d8;}.cls-3{fill:#565d91;}</style></defs><title>diagnostico</title><g id="Layer_2" data-name="Layer 2"><g id="LANDING"><path d="M144.42,47.09c5.67-7.51,4.32-18.67-2.75-25.25-6.57-6.12-17.84-6.93-24.07-1.46,2.12,2,4.26,4,6.31,6s2.14,4.05.54,5.71-3.84,1.51-5.75-.36q-4.56-4.44-9-9c-2.1-2.16-2-4.15.28-6.23,7.42-6.72,16-8.75,25.7-6.31a3,3,0,0,0,3.48-.94c1.69-1.83,3.5-3.55,5.27-5.31,4.92-4.86,11.61-5.29,16.35-1s5.11,11,.85,16.37l-.76,1L165.52,24A28.29,28.29,0,0,1,177,47.68c-.12,19.22,0,38.44,0,57.66v3.11c4.85-.11,9.55.07,12.43,4.17a15.1,15.1,0,0,1,2.75,7.5c.34,6.84-4.21,10.31-14.48,11.7v23.44h2.68c12.32,0,24.63-.06,36.94.08a7,7,0,0,1,4.4,1.72c8.43,8.16,16.73,16.45,25,24.76a10.9,10.9,0,0,1,2.87,11.92,11,11,0,0,1-9.52,7.74,11.17,11.17,0,0,1-9.7-3.54c-5.84-5.81-11.75-11.56-17.51-17.44a6.48,6.48,0,0,0-5.43-2.28c-3.63.2-7.28.05-11.27.05v9.61c0,4.88-.9,5.77-5.82,5.81h-2.11a29.86,29.86,0,0,1-8.49,16.66,2.11,2.11,0,0,0-.59,1.3c0,6.89,0,13.77,0,20.95,6.29,0,12.33,0,18.38,0a28.44,28.44,0,0,1,5.69.45,19.17,19.17,0,0,1,15.22,17.27c.31,3.7-1.09,5.26-4.81,5.27H142.23c-3.27,0-5.1-1.41-5-3.84s1.81-3.65,5-3.66h67.64c-.27-3.75-4.69-7.51-9.26-8-.74-.07-1.5-.06-2.25-.06q-44.67,0-89.36,0c-5,0-8.8,2-11.27,6.41a4.5,4.5,0,0,0-.36.92,2.26,2.26,0,0,0,.09.7H102c7.57,0,15.14,0,22.71,0,2.66,0,4.38,1.59,4.31,3.81s-1.77,3.65-4.25,3.66q-16,.06-31.95,0c-2.67,0-4-1.61-4-4.32.06-9.69,8.51-18.39,18.29-18.61,6.89-.15,13.78,0,20.86,0v-14h-3.48c-4.62,0-5.67-1.08-5.68-5.78V193.68c-1.4,0-2.54,0-3.68,0-2.6-.13-3.94-1.48-4-4.11-.06-3.64,0-7.29,0-11.29h-4.59c-6.32,0-12.65-.06-19,0a6.28,6.28,0,0,1-4.86-2c-9.12-9.1-18.31-18.16-27.46-27.24-2.35-2.33-2.64-4.54-.88-6.24s3.85-1.34,6.1.88c8.58,8.48,17.19,16.94,25.71,25.47a5.35,5.35,0,0,0,4.16,1.66q59.9-.08,119.81-.09a8,8,0,0,1,6.15,2.58c6.24,6.35,12.61,12.57,18.91,18.86,1.53,1.52,3.16,2.51,5.33,1.47,2.55-1.21,2.94-4.41.71-6.68-3.78-3.86-7.65-7.64-11.49-11.45s-7.48-7.34-11.13-11.11a5.26,5.26,0,0,0-4.15-1.67q-59,.08-118.06.08a7.8,7.8,0,0,1-6-2.43Q67.3,137.63,44,115a18.79,18.79,0,0,0-1.47-1.36c-2.08-1.66-4.38-1.6-6.07.11a4.31,4.31,0,0,0,.13,6.25c3.55,3.63,7.18,7.18,10.8,10.73,1.37,1.34,2,2.84,1.29,4.71a3.6,3.6,0,0,1-5.83,1.24c-4.4-4.18-8.79-8.39-12.82-12.92-2.57-2.89-2.8-6.61-1.87-10.4a3.43,3.43,0,0,0-.72-2.67c-1.5-1.64-3.26-3-5-4.62-.49.39-.89.67-1.24,1-3.7,3.59-4.83,3.6-8.4,0-3.06-3.06-6.15-6.09-9.17-9.19-4.8-4.9-4.89-11.9-.28-16.52s11.61-4.55,16.52.24c3.22,3.14,6.37,6.34,9.54,9.52s3.11,4.58,0,7.69a20.26,20.26,0,0,1-2,1.56c2.06,1.88,3.78,3.54,5.61,5.06a2.37,2.37,0,0,0,1.92.32c5.41-1.93,9.87-.51,13.87,3.42C64,124,79.13,138.75,94.21,153.56a5.57,5.57,0,0,0,4.37,1.73c10.23-.07,20.46,0,30.89,0V131.64c-4.5.09-9.06-.3-11.8-4.37a15,15,0,0,1-2.54-7.31c-.3-6.79,3.83-10,14.54-11.77,0-1.77,0-3.58,0-5.4.09-5.69,3.79-9.6,9.47-9.8,3.82-.14,7.66-.15,11.48,0,5.44.22,9.09,4,9.34,9.43.09,1.9,0,3.8,0,5.88h9.51v-3.08c0-19-.08-37.94,0-56.91.05-7.91-2.71-14.23-9.18-18.88-1.62-1.16-3.14-2.45-4.7-3.68-1.85.65-1.53,1.78-1.17,3.2,2.4,9.46.47,18-6,25.35-2.52,2.89-4.37,2.88-7.11.16Q136.19,49.28,131,44.06c-2.19-2.22-2.39-4.42-.63-6.09s3.77-1.36,5.89.76C139,41.44,141.6,44.2,144.42,47.09Zm-18,163.9c12,0,23.67.49,35.33-.15a20.06,20.06,0,0,0,18.61-16.94H126.41Zm43.46-55.8V131.75H137.36v23.44ZM118.76,186h69.7v-7.54h-69.7Zm16.94,46.45h35.82V216.2c-11.74,4.46-23.93,1.39-35.82,2.69ZM153.87,116H128.45a13.06,13.06,0,0,0-2.73.18,3.93,3.93,0,0,0,.27,7.75,14.65,14.65,0,0,0,2,.08h51.35a11.38,11.38,0,0,0,2.48-.19,3.92,3.92,0,0,0,.43-7.44,10.3,10.3,0,0,0-3.19-.37C170.66,116,162.27,116,153.87,116ZM22.51,95.09c-2.85-2.91-5.55-5.84-8.45-8.55a3.57,3.57,0,0,0-5.19.08c-1.63,1.49-2,3.55-.54,5.14,2.78,3,5.89,5.75,8.8,8.53C18.89,98.59,20.68,96.87,22.51,95.09Zm130,13.27c0-2,0-3.71,0-5.44a2.2,2.2,0,0,0-2.5-2.43h-6c-7.44,0-6.87-.79-6.78,7.08a2.91,2.91,0,0,0,.26.8ZM144.86,14.1l5.92,5.49c1.56-1.58,3.49-3.39,5.26-5.35a3.9,3.9,0,0,0-.11-5.57,3.81,3.81,0,0,0-5.39-.11C148.52,10.36,146.66,12.33,144.86,14.1Z"/><path class="cls-1" d="M126.41,211V193.9h53.94a20.06,20.06,0,0,1-18.61,16.94C150.08,211.48,138.36,211,126.41,211Z"/><path class="cls-1" d="M169.87,155.19H137.36V131.75h32.51Z"/><path class="cls-2" d="M118.76,186v-7.54h69.7V186Z"/><path class="cls-3" d="M135.7,232.42V218.89c11.89-1.3,24.08,1.77,35.82-2.69v16.22Z"/><path class="cls-3" d="M153.87,116c8.4,0,16.79,0,25.18,0a10.3,10.3,0,0,1,3.19.37,3.92,3.92,0,0,1-.43,7.44,11.38,11.38,0,0,1-2.48.19H128a14.65,14.65,0,0,1-2-.08,3.93,3.93,0,0,1-.27-7.75,13.06,13.06,0,0,1,2.73-.18Z"/><path class="cls-1" d="M22.51,95.09c-1.83,1.78-3.62,3.5-5.38,5.2-2.91-2.78-6-5.5-8.8-8.53-1.47-1.59-1.09-3.65.54-5.14a3.57,3.57,0,0,1,5.19-.08C17,89.25,19.66,92.18,22.51,95.09Z"/><path class="cls-2" d="M152.47,108.36h-15a2.91,2.91,0,0,1-.26-.8c-.09-7.87-.66-7.06,6.78-7.08h6a2.2,2.2,0,0,1,2.5,2.43C152.49,104.65,152.47,106.38,152.47,108.36Z"/><path class="cls-1" d="M144.86,14.1c1.8-1.77,3.66-3.74,5.68-5.54a3.81,3.81,0,0,1,5.39.11,3.9,3.9,0,0,1,.11,5.57c-1.77,2-3.7,3.77-5.26,5.35Z"/></g></g></svg>