<svg xmlns="http://www.w3.org/2000/svg" viewBox="0 0 136.14 259.66"><defs><style>.cls-1{fill:#fff;stroke:#fff;stroke-miterlimit:10;}</style></defs><title>Asset 5</title><g id="Layer_2" data-name="Layer 2"><g id="LANDING"><circle class="cls-1" cx="5.94" cy="5.94" r="5.44"/><circle class="cls-1" cx="47.61" cy="5.94" r="5.44"/><circle class="cls-1" cx="88.53" cy="5.94" r="5.44"/><circle class="cls-1" cx="130.2" cy="5.94" r="5.44"/><circle class="cls-1" cx="5.94" cy="46.48" r="5.44"/><circle class="cls-1" cx="47.61" cy="46.48" r="5.44"/><circle class="cls-1" cx="88.53" cy="46.48" r="5.44"/><circle class="cls-1" cx="130.2" cy="46.48" r="5.44"/><circle class="cls-1" cx="5.94" cy="88.52" r="5.44"/><circle class="cls-1" cx="47.61" cy="88.52" r="5.44"/><circle class="cls-1" cx="88.53" cy="88.52" r="5.44"/><circle class="cls-1" cx="130.2" cy="88.52" r="5.44"/><circle class="cls-1" cx="5.94" cy="129.06" r="5.44"/><circle class="cls-1" cx="47.61" cy="129.06" r="5.44"/><circle class="cls-1" cx="88.53" cy="129.06" r="5.44"/><circle class="cls-1" cx="130.2" cy="129.06" r="5.44"/><circle class="cls-1" cx="5.94" cy="171.09" r="5.44"/><circle class="cls-1" cx="47.61" cy="171.09" r="5.44"/><circle class="cls-1" cx="88.53" cy="171.09" r="5.44"/><circle class="cls-1" cx="130.2" cy="171.09" r="5.44"/><circle class="cls-1" cx="5.94" cy="211.63" r="5.44"/><circle class="cls-1" cx="47.61" cy="211.63" r="5.44"/><circle class="cls-1" cx="88.53" cy="211.63" r="5.44"/><circle class="cls-1" cx="130.2" cy="211.63" r="5.44"/><circle class="cls-1" cx="5.94" cy="253.72" r="5.44"/><circle class="cls-1" cx="47.61" cy="253.72" r="5.44"/><circle class="cls-1" cx="88.53" cy="253.72" r="5.44"/><circle class="cls-1" cx="130.2" cy="253.72" r="5.44"/></g></g></svg>