<svg xmlns="http://www.w3.org/2000/svg" viewBox="0 0 247.63 247.68"><defs><style>.cls-1{fill:#acb3d8;}.cls-2{fill:#8083c5;}.cls-3{fill:#565d91;}</style></defs><title>financiamiento</title><g id="Layer_2" data-name="Layer 2"><g id="LANDING"><path d="M208.36,105.83c1.42-1.52,2.8-3.07,4.27-4.54,7.19-7.21,15-7.12,22.23.11,4,3.95,5.9,8.57,4.19,14A17.8,17.8,0,0,1,235,122.1c-7.68,8-15.59,15.7-23.41,23.53-.57.57-1.11,1.18-1.9,2h14c0-1.14,0-2.35,0-3.55.11-2.67,1.55-4.21,4.21-4.24,5.15-.07,10.31-.08,15.47,0,2.91,0,4.27,1.66,4.27,4.93q0,19.22,0,38.44c0,7.82,0,15.64,0,23.46,0,3.61-1.39,5-5,5-4.4,0-8.81,0-13.22,0-4.63,0-5.76-1.12-5.79-5.69,0-.66,0-1.32,0-2.51l-16,.83V222q0,10.23,0,20.47c0,3.78-1.36,5.18-5.05,5.18q-98.83,0-197.67,0c-3.56,0-4.94-1.42-4.95-5Q0,232,0,221.42c0-4.56,1.12-5.66,5.77-5.7H7.87v-16c-1.17,0-2.38,0-3.58,0-2.67-.12-4.23-1.56-4.25-4.21Q0,183.8,0,172.07c0-2.67,1.54-4.14,4.18-4.27,1.15-.05,2.31,0,3.78,0v-12c0-2.41,0-4.82,0-7.24.05-3.24,1.49-4.66,4.78-4.69,3.64,0,7.28,0,11.19,0V6.16C24,1.06,25,.05,30.1.05Q102,.05,173.86,0A8,8,0,0,1,180,2.58q12.52,12.72,25.24,25.24a7.68,7.68,0,0,1,2.5,5.93c-.08,23-.05,46.1-.05,69.14v2.66ZM171.74,8.23H32.11v135.6h38c7.07,0,14.14,0,21.21,0,3,0,4.52,1.5,4.53,4.42q.08,11.49,0,23c0,3.06-1.54,4.48-4.67,4.55-1,0-2.1,0-3.11,0v16c1.35,0,2.52,0,3.68,0,2.5.14,4.06,1.59,4.08,4.11q.09,11.85,0,23.71c0,2.51-1.58,4-4.09,4.1-1.22.07-2.44,0-3.69,0v15.86H199.47V209.67c-5.74,5.83-12.3,9.43-20.05,9.84-8.22.44-16.47.14-24.71.15a8.29,8.29,0,0,1-1.46-.26c-4-.79-6.55-3.35-8.68-7-1.83,1.91-3.46,3.68-5.18,5.35a9.36,9.36,0,0,1-2.61,1.86c-8.91,3.87-17.85,7.67-26.78,11.52-1.86.8-3.59.78-5-.75s-1.32-3.1-.56-4.86c2.74-6.33,5.42-12.68,8.17-19,1.61-3.7,3.29-7.37,5-11.27-.12-.12-.5-.55-.9-1-6.56-6.73-6.56-14.5,0-21.09q11.82-11.83,23.64-23.66c5.16-5.17,11.27-8.58,18.57-9.33,4.36-.46,8.8-.21,13.19-.46a5.32,5.32,0,0,0,3.22-1.3q11.58-11.37,22.93-23a5.39,5.39,0,0,0,1.36-3.44q.11-36.81.06-73.63V36H177.08c-4.06,0-5.33-1.3-5.34-5.39C171.73,23.21,171.74,15.81,171.74,8.23ZM115.48,220.06c5.75-2.46,10.85-4.59,15.9-6.85a12.56,12.56,0,0,0,3.66-2.45q36.56-36.45,73-73c.62-.62,1.21-1.28,1.42-1.51-3.54-3.53-6.86-6.86-10.22-10.23,0,0-.28.22-.51.45q-37.31,37.3-74.6,74.61a6,6,0,0,0-1.31,1.79C120.48,208.35,118.14,213.84,115.48,220.06Zm108.13-64.24c-7.26,0-14.31-.11-21.35.13a3.89,3.89,0,0,0-2.63,2.74c-.22,5.13.18,10.29,0,15.43-.48,14.42-11.82,27.21-26.12,29.08-5.57.73-11.27.4-16.91.54-3,.07-4.76,1.51-4.81,3.91s1.75,4,4.65,4.06c6.9,0,13.8.09,20.69,0a20.88,20.88,0,0,0,14.69-5.89,33.39,33.39,0,0,1,26.39-10.05c1.78.1,3.57,0,5.39,0ZM87.76,152H16.2v15.67H87.76ZM16.11,215.54H87.75V199.88H16.11Zm149.18-67.67a24.13,24.13,0,0,0-19.18,7.3q-11.73,11.75-23.48,23.48c-4.11,4.12-3.63,8,1,10.87Zm66.53.08v55.58h7.69V148Zm-16-18.28c4.75-4.66,9.76-9.38,14.52-14.34,2.12-2.19,1.67-5.19-.56-7.63-3.5-3.83-6.29-4.68-9.24-2.8a3,3,0,0,0-.41.29l-14.28,14.52Zm-53.51,66C183,198,194,183.4,191.48,166.44Zm-146.49-4V176H8.14v15.65Zm8.34-15.74v15.65h7.68V175.9Zm16-.06v15.74h7.64V175.84Zm23.61,15.82V175.92H56.09v15.74Zm16,0V176H72v15.65ZM8.19,223.82v15.74h7.66V223.82Zm23.6,15.75V223.92H24.12v15.65Zm16,0V223.85H40.12v15.73Zm16,0V223.92H56.07v15.65Zm8.38-15.8v15.74H79.7V223.77Zm121-195.83L179.92,14.72V27.94Z"/><path class="cls-1" d="M171.74,8.23c0,7.58,0,15,0,22.38,0,4.09,1.28,5.38,5.34,5.39H199.7v2.44q0,36.81-.06,73.63a5.39,5.39,0,0,1-1.36,3.44q-11.34,11.59-22.93,23a5.32,5.32,0,0,1-3.22,1.3c-4.39.25-8.83,0-13.19.46-7.3.75-13.41,4.16-18.57,9.33q-11.81,11.83-23.64,23.66c-6.58,6.59-6.58,14.36,0,21.09.4.41.78.84.9,1-1.75,3.9-3.43,7.57-5,11.27-2.75,6.32-5.43,12.67-8.17,19-.76,1.76-.81,3.42.56,4.86s3.18,1.55,5,.75c8.93-3.85,17.87-7.65,26.78-11.52a9.36,9.36,0,0,0,2.61-1.86c1.72-1.67,3.35-3.44,5.18-5.35,2.13,3.63,4.72,6.19,8.68,7a8.29,8.29,0,0,0,1.46.26c8.24,0,16.49.29,24.71-.15,7.75-.41,14.31-4,20.05-9.84v29.89H88.06V223.7c1.25,0,2.47.06,3.69,0,2.51-.13,4.07-1.59,4.09-4.1q.1-11.86,0-23.71c0-2.52-1.58-4-4.08-4.11-1.16-.06-2.33,0-3.68,0v-16c1,0,2.06,0,3.11,0,3.13-.07,4.65-1.49,4.67-4.55q.06-11.49,0-23c0-2.92-1.56-4.4-4.53-4.42-7.07,0-14.14,0-21.21,0h-38V8.23ZM143.8,87.85V84.92c0-8.07,0-16.14,0-24.21,0-3.26-1.47-4.72-4.72-4.74-4.74,0-9.49,0-14.23,0-3.59,0-5,1.39-5,5q0,12.11,0,24.21v2.64h-8V85q0-19.83,0-39.68c0-4-1.3-5.32-5.41-5.32q-6.6,0-13.22,0c-4.06,0-5.33,1.29-5.33,5.4q0,19.83,0,39.68v2.66h-8V84.82q0-27.82,0-55.66c0-3.76-1.36-5.13-5.07-5.15-4.41,0-8.82,0-13.23,0s-5.66,1.19-5.66,5.57q0,27.71,0,55.41v3H48.12v7.77H183.59V87.84h-7.85v-3q0-17.84,0-35.69c0-3.77-1.36-5.15-5.06-5.17H157c-3.87,0-5.17,1.35-5.17,5.3q0,18,0,35.94v2.63ZM183.62,120H48.14v7.69H183.62Zm-8-16H56.13v7.7H175.62Z"/><path class="cls-2" d="M115.48,220.06c2.66-6.22,5-11.71,7.38-17.18a6,6,0,0,1,1.31-1.79q37.29-37.32,74.6-74.61c.23-.23.49-.43.51-.45,3.36,3.37,6.68,6.7,10.22,10.23-.21.23-.8.89-1.42,1.51q-36.51,36.51-73,73a12.56,12.56,0,0,1-3.66,2.45C126.33,215.47,121.23,217.6,115.48,220.06Z"/><path class="cls-1" d="M223.61,155.82v39.93c-1.82,0-3.61.08-5.39,0a33.39,33.39,0,0,0-26.39,10.05,20.88,20.88,0,0,1-14.69,5.89c-6.89.13-13.79.06-20.69,0-2.9,0-4.7-1.64-4.65-4.06s1.84-3.84,4.81-3.91c5.64-.14,11.34.19,16.91-.54,14.3-1.87,25.64-14.66,26.12-29.08.17-5.14-.23-10.3,0-15.43a3.89,3.89,0,0,1,2.63-2.74C209.3,155.71,216.35,155.82,223.61,155.82Z"/><path class="cls-3" d="M87.76,152v15.67H16.2V152Z"/><path class="cls-3" d="M16.11,215.54V199.88H87.75v15.66Z"/><path class="cls-1" d="M165.29,147.87l-41.66,41.65c-4.63-2.87-5.11-6.75-1-10.87q11.73-11.75,23.48-23.48A24.13,24.13,0,0,1,165.29,147.87Z"/><path class="cls-2" d="M231.82,148h7.69v55.58h-7.69Z"/><path class="cls-3" d="M215.82,129.67l-10-10,14.28-14.52a3,3,0,0,1,.41-.29c3-1.88,5.74-1,9.24,2.8,2.23,2.44,2.68,5.44.56,7.63C225.58,120.29,220.57,125,215.82,129.67Z"/><path class="cls-1" d="M162.31,195.62l29.17-29.18C194,183.4,183,198,162.31,195.62Z"/><path class="cls-2" d="M15.82,191.64H8.14V176h7.68Z"/><path class="cls-2" d="M24.16,175.9h7.68v15.65H24.16Z"/><path class="cls-2" d="M40.11,175.84h7.64v15.74H40.11Z"/><path class="cls-2" d="M63.72,191.66H56.09V175.92h7.63Z"/><path class="cls-2" d="M79.71,191.64H72V176h7.67Z"/><path class="cls-2" d="M8.19,223.82h7.66v15.74H8.19Z"/><path class="cls-2" d="M31.79,239.57H24.12V223.92h7.67Z"/><path class="cls-2" d="M47.74,239.58H40.12V223.85h7.62Z"/><path class="cls-2" d="M63.74,239.57H56.07V223.92h7.67Z"/><path class="cls-2" d="M72.12,223.77H79.7v15.74H72.12Z"/><path class="cls-2" d="M193.13,27.94H179.92V14.72Z"/><path d="M143.8,87.85h8V85.22q0-18,0-35.94c0-4,1.3-5.29,5.17-5.3h13.73c3.7,0,5.06,1.4,5.06,5.17q0,17.85,0,35.69v3h7.85v7.87H48.12V87.94h7.81V85q0-27.7,0-55.41c0-4.38,1.21-5.56,5.66-5.57s8.82,0,13.23,0c3.71,0,5.07,1.39,5.07,5.15q0,27.84,0,55.66v2.91h8V85.07q0-19.84,0-39.68c0-4.11,1.27-5.39,5.33-5.4q6.62,0,13.22,0c4.11,0,5.41,1.28,5.41,5.32q0,19.85,0,39.68v2.8h8V85.15q0-12.11,0-24.21c0-3.58,1.41-5,5-5,4.74,0,9.49,0,14.23,0,3.25,0,4.71,1.48,4.72,4.74,0,8.07,0,16.14,0,24.21Zm-72.06-.06V32.2H64V87.79ZM96,48.1V87.71h7.68V48.1Zm71.53,39.7V52.1H159.9V87.8ZM128,64.08V87.71h7.68V64.08Z"/><path d="M183.62,120v7.69H48.14V120Z"/><path d="M175.62,104.06v7.7H56.13v-7.7Z"/><path class="cls-3" d="M71.74,87.79H64V32.2h7.7Z"/><path class="cls-3" d="M96,48.1h7.68V87.71H96Z"/><path class="cls-3" d="M167.57,87.8H159.9V52.1h7.67Z"/><path class="cls-3" d="M128,64.08h7.68V87.71H128Z"/></g></g></svg>