<svg xmlns="http://www.w3.org/2000/svg" viewBox="0 0 27.7 27.49"><defs><style>.cls-1{fill:#fff;}</style></defs><title>Asset 4</title><g id="Layer_2" data-name="Layer 2"><g id="LANDING"><path class="cls-1" d="M2.89,24.86a1.94,1.94,0,0,1,0-.24c.29-1.34.58-2.68.89-4a1.76,1.76,0,0,0-.2-1.34,11.14,11.14,0,0,1-1.23-7.83A11.69,11.69,0,0,1,16,2.38a11.43,11.43,0,0,1,7.56,5,11.1,11.1,0,0,1,1.87,8.07,11.27,11.27,0,0,1-1.85,4.76,1.08,1.08,0,1,0,1.8,1.19,13.25,13.25,0,0,0,1.92-10.91A13.82,13.82,0,0,0,6.82,2,13.28,13.28,0,0,0,0,13.92,13,13,0,0,0,1.55,20a.74.74,0,0,1,.07.46C1.22,22.31.81,24.16.41,26a1.07,1.07,0,0,0,1.34,1.33l5.63-1.27a.64.64,0,0,1,.41,0,13.82,13.82,0,0,0,10.05.78,13,13,0,0,0,3.08-1.35,1.08,1.08,0,0,0,.47-1.31,1,1,0,0,0-1.18-.68,1.75,1.75,0,0,0-.57.23,11.59,11.59,0,0,1-5.86,1.54A11.32,11.32,0,0,1,8.46,24a1.4,1.4,0,0,0-1-.18l-2.68.62Z"/><path class="cls-1" d="M9.81,7.71a1.41,1.41,0,0,0-1.3.49,3.66,3.66,0,0,0-.71,4,9.9,9.9,0,0,0,1.41,2.39A11.65,11.65,0,0,0,15,19a5.77,5.77,0,0,0,3,.5,2.64,2.64,0,0,0,2.42-2.69.49.49,0,0,0-.32-.51l-.89-.44c-.55-.26-1.09-.53-1.64-.77-.35-.16-.47-.1-.71.21s-.62.77-.94,1.15-.36.29-.69.16A8.72,8.72,0,0,1,10.91,13c-.23-.38-.2-.46.09-.8a6.08,6.08,0,0,0,.73-1,.77.77,0,0,0,0-.58c-.28-.75-.61-1.48-.9-2.23C10.65,7.9,10.36,7.58,9.81,7.71Z"/></g></g></svg>