<svg width="433" height="157" viewBox="0 0 433 157" fill="none" xmlns="http://www.w3.org/2000/svg">
<rect width="1063" height="681" transform="translate(-326 -214)" fill="white"/>
<path d="M282.8 18.2C282.8 23.4 281.267 27.6667 278.2 31C275.267 34.2 271.133 35.8 265.8 35.8C260.6 35.8 256.467 34.1333 253.4 30.8C250.333 27.4667 248.8 23.2667 248.8 18.2C248.8 12.7333 250.333 8.4 253.4 5.2C256.467 1.86666 260.6 0.199991 265.8 0.199991C271 0.199991 275.133 1.86666 278.2 5.2C281.267 8.4 282.8 12.7333 282.8 18.2ZM250.6 46.6H281.4V143H250.6V46.6ZM374.753 76.8C369.02 72.2667 361.686 70 352.753 70C345.553 70 339.953 72.1333 335.953 76.4C331.953 80.6667 329.953 86.4667 329.953 93.8C329.953 101.133 331.953 107.133 335.953 111.8C339.953 116.467 345.353 118.8 352.153 118.8C360.153 118.8 368.22 116.6 376.353 112.2L386.953 136.4C375.886 142.133 364.486 145 352.753 145C335.82 145 322.42 140.333 312.553 131C302.686 121.533 297.753 109.267 297.753 94.2C297.753 79 302.686 66.8 312.553 57.6C322.42 48.4 335.753 43.8 352.553 43.8C364.82 43.8 375.753 46.6667 385.353 52.4L374.753 76.8ZM432.605 18.2C432.605 23.4 431.071 27.6667 428.005 31C425.071 34.2 420.938 35.8 415.605 35.8C410.405 35.8 406.271 34.1333 403.205 30.8C400.138 27.4667 398.605 23.2667 398.605 18.2C398.605 12.7333 400.138 8.4 403.205 5.2C406.271 1.86666 410.405 0.199991 415.605 0.199991C420.805 0.199991 424.938 1.86666 428.005 5.2C431.071 8.4 432.605 12.7333 432.605 18.2ZM400.405 46.6H431.205V143H400.405V46.6Z" fill="#5E60CE"/>
<path d="M156.001 7.36601C174.001 10.942 178.501 32.1721 178.501 57.366C175.461 99.5779 149 163.148 133.5 156.148C118 149.148 118 149.148 102.5 156.148C87 163.148 57.0002 98.9731 57.0002 59.866C57.0002 38.1275 56.7148 13.7312 77.5005 7.36602C84.4948 5.22417 95.5615 8.24574 104.381 11.5396C113.038 14.7727 122.855 14.0411 131.452 10.6519C138.509 7.86997 147.464 5.67006 156.001 7.36601Z" fill="#5E60CE"/>
<path d="M190.524 114.237C172.23 149.114 137.472 162.477 123.444 154.378C109.415 146.279 106.08 107.876 126.697 72.1665C145.122 45.0398 167.387 29.3414 200.687 24.3117C208.998 55.3282 208.819 79.3591 190.524 114.237Z" fill="#FF76B5" fill-opacity="0.5"/>
<g style="mix-blend-mode:overlay">
<path d="M190.926 113.974C172.631 148.852 137.874 162.215 123.845 154.115C109.817 146.016 106.482 107.613 127.098 71.9038C145.523 44.7771 167.789 29.0787 201.088 24.049C209.399 55.0655 209.22 79.0964 190.926 113.974Z" fill="#FF76B5" fill-opacity="0.5"/>
</g>
<path d="M195.28 134.224C166.16 160.742 128.929 161.411 118.516 149.002C108.104 136.593 118.105 99.3654 149.691 72.8611C176.283 53.672 202.575 46.5357 235.586 53.1985C232.788 85.1868 224.4 107.707 195.28 134.224Z" fill="#FF76B5" fill-opacity="0.5"/>
<g style="mix-blend-mode:overlay">
<path d="M195.747 134.115C166.627 160.632 129.395 161.302 118.983 148.893C108.571 136.484 118.571 99.256 150.158 72.7518C176.749 53.5627 203.041 46.4263 236.053 53.0891C233.254 85.0775 224.867 107.598 195.747 134.115Z" fill="#FF76B5" fill-opacity="0.5"/>
</g>
<path d="M86.8343 76.9914C118.005 101.064 125.13 137.614 114.717 150.023C104.305 162.432 65.9062 159.048 34.3197 132.544C10.8046 109.688 -0.788936 85.0349 0.0402418 51.3679C32.0286 48.5693 55.6634 52.9185 86.8343 76.9914Z" fill="#FF76B5" fill-opacity="0.5"/>
<g style="mix-blend-mode:overlay">
<path d="M86.6454 76.5505C117.816 100.623 124.941 137.173 114.528 149.582C104.116 161.991 65.7173 158.607 34.1308 132.103C10.6156 109.247 -0.977901 84.594 -0.148723 50.927C31.8397 48.1284 55.4744 52.4776 86.6454 76.5505Z" fill="#FF76B5" fill-opacity="0.5"/>
</g>
<path d="M107.741 76.5802C128.798 109.862 122.992 146.645 108.964 154.744C94.9353 162.843 60.0097 146.53 39.393 110.821C25.113 81.3015 22.6506 54.1697 34.9446 22.8167C65.961 31.1275 86.6829 43.2979 107.741 76.5802Z" fill="#FF76B5" fill-opacity="0.5"/>
<g style="mix-blend-mode:overlay">
<path d="M107.714 76.1012C128.771 109.383 122.965 146.166 108.937 154.265C94.9085 162.364 59.9828 146.051 39.3662 110.342C25.0862 80.8225 22.6238 53.6907 34.9178 22.3377C65.9342 30.6485 86.6561 42.8189 107.714 76.1012Z" fill="#FF76B5" fill-opacity="0.5"/>
</g>
</svg>
