<svg xmlns="http://www.w3.org/2000/svg" viewBox="0 0 32.37 32.37"><defs><style>.cls-1{fill:#acb3d8;}</style></defs><title>Asset 35</title><g id="Layer_2" data-name="Layer 2"><g id="LANDING"><path d="M16.19,32.37A16.19,16.19,0,1,1,32.37,16.18,16.22,16.22,0,0,1,16.19,32.37Zm13.23-16.2A13.24,13.24,0,1,0,16.18,29.42,13.26,13.26,0,0,0,29.42,16.17Z"/><path class="cls-1" d="M29.42,16.17A13.24,13.24,0,1,1,16.19,3,13.26,13.26,0,0,1,29.42,16.17ZM13.93,18.79l-2.95-3c-.33-.32-.64-.67-1-1a1.36,1.36,0,0,0-1.57-.16,1.47,1.47,0,0,0-.3,2.42l4.63,4.62a1.5,1.5,0,0,0,2.39,0l9.06-9.06a2.59,2.59,0,0,0,.31-.35,1.46,1.46,0,0,0-.27-2,1.48,1.48,0,0,0-2.07.19L15.92,16.8Z"/><path d="M13.93,18.79l2-2,6.24-6.24a1.48,1.48,0,0,1,2.07-.19,1.46,1.46,0,0,1,.27,2,2.59,2.59,0,0,1-.31.35l-9.06,9.06a1.5,1.5,0,0,1-2.39,0L8.11,17.13a1.47,1.47,0,0,1,.3-2.42,1.36,1.36,0,0,1,1.57.16c.36.29.67.64,1,1Z"/></g></g></svg>