<svg xmlns="http://www.w3.org/2000/svg" viewBox="0 0 53.88 53.88"><defs><style>.cls-1{fill:#fff;}</style></defs><title>Asset 3</title><g id="Layer_2" data-name="Layer 2"><g id="LANDING"><path class="cls-1" d="M24.91,0H29a3.9,3.9,0,0,0,.67.18,26.78,26.78,0,0,1,23.05,19c.54,1.86.8,3.8,1.18,5.7V29a5.09,5.09,0,0,0-.18.67C52.19,41,46,48.65,35.22,52.5A46.55,46.55,0,0,1,29,53.88H24.91a7.73,7.73,0,0,0-.8-.19A26.78,26.78,0,0,1,1,33.87C.54,32.26.31,30.61,0,29V24.91A7.57,7.57,0,0,0,.2,24,26.78,26.78,0,0,1,19.09,1.21C21,.64,23,.39,24.91,0ZM5.35,26.93A21.6,21.6,0,1,0,27,5.35,21.66,21.66,0,0,0,5.35,26.93Z"/><path class="cls-1" d="M24.25,21.84c0-2,0-4,0-6,0-1.56.78-2.39,2.09-2.35s1.92.86,1.93,2.38c0,3.59,0,7.19,0,10.78a1.49,1.49,0,0,0,.84,1.51c3.17,1.84,6.32,3.72,9.47,5.61a1.9,1.9,0,0,1-1.44,3.52,4.28,4.28,0,0,1-.63-.34c-3.59-2.15-7.17-4.31-10.77-6.45a3,3,0,0,1-1.47-2.81Z"/></g></g></svg>