<svg xmlns="http://www.w3.org/2000/svg" viewBox="0 0 211.88 255.57"><defs><style>.cls-1{fill:#acb3d8;}.cls-2{fill:#565d91;}.cls-3{fill:#8083c5;}</style></defs><title>formas-de-pago</title><g id="Layer_2" data-name="Layer 2"><g id="LANDING"><path d="M179,109.49c5.1-4.51,9.82-8.51,14.33-12.72,4.29-4,8-4.11,12.13,0,1.48,1.46,3,2.9,4.39,4.43a7.26,7.26,0,0,1,.11,10c-.38.45-.82.83-1.21,1.26-3,3.46-6.05,6.93-9.27,10.62,2.55,2.47,5,4.73,7.32,7.09s2.24,4.19,0,6.45c-8.93,8.94-17.92,17.82-26.8,26.81a4.71,4.71,0,0,0-.94,3.08q-.08,39.93-.05,79.85a15.87,15.87,0,0,1-.33,4c-.87,3.4-3.82,5.28-8.06,5.28H9c-6.28,0-8.95-2.65-8.95-8.92V24.57c0-6.27,2.68-8.93,9-8.94,10.22,0,20.45,0,30.68-.05,1.19,0,2.36-.8,3.55-1.18,1.7-.55,3.39-1.48,5.1-1.52,7.4-.17,14.8-.07,22.2-.07h2.75c.34-.93.61-1.71.92-2.48A16.48,16.48,0,0,1,89.31,0a16.1,16.1,0,0,1,15.38,10.27c.8,2.14,1.82,2.63,3.93,2.59,7.32-.14,14.64-.19,21.95,0,1.91.06,3.78,1.28,5.68,1.92a10.43,10.43,0,0,0,3,.78c10.31.05,20.62,0,30.93,0,6.1,0,8.82,2.72,8.83,8.83q0,40.8,0,81.6Zm-7.68,42c-3.05,2.36-5.09,4.57-4.91,8.72.38,8.89.42,17.81,0,26.7a73.19,73.19,0,0,1-2.55,17.66,54.21,54.21,0,0,1-52,38.47c-29.93.11-59.87,0-89.81,0-6.77,0-9.56-2.76-9.56-9.48V90.37c0-.83,0-1.67.06-2.5a3.44,3.44,0,0,1,3.39-3.36,3.41,3.41,0,0,1,3.82,2.87A14.38,14.38,0,0,1,20,90.6q0,70.88,0,141.75v3a5.8,5.8,0,0,0,.89.21c30.51,0,61,.07,91.55,0a16.76,16.76,0,0,0,15.9-12.86c.67-2.87.53-5.93.66-8.91.21-4.93,3.33-8.07,8.21-8.14,1.33,0,2.66,0,4,0,10.1-.15,17.53-7.29,17.77-17.37.19-7.65.06-15.31.05-23a8.57,8.57,0,0,0-.26-1.37c-.9.86-1.56,1.46-2.2,2.1-10,10-19.74,20.26-30.08,29.89-6.35,5.92-13.51,11-20.5,16.19-3.46,2.58-7.94,1.9-11-1s-4-7.6-1.47-11.15c4.6-6.49,9-13.25,14.53-19,16.17-16.75,32.81-33.06,49.31-49.49a5.29,5.29,0,0,0,1.7-4.14q-.06-44.41,0-88.84c0-.89-.08-1.77-.12-2.7H138.42a2.58,2.58,0,0,0-.25.65c0,4.24,0,8.48-.1,12.72-.16,6-4,9.75-10,9.76q-38.55,0-77.09,0c-6.11,0-10-3.82-10.07-9.92-.06-3.41-.16-6.83,0-10.23.14-2.42-.41-3.38-3.09-3.24-5,.24-10,.06-15,.06H20V38.9c0,10.31,0,20.63,0,30.94,0,3-1.39,4.58-3.77,4.58s-3.7-1.54-3.7-4.58c0-11.15,0-22.3,0-33.44,0-5.1,3.16-8.21,8.28-8.27,5.74-.07,11.48,0,17.22,0h2.73V23.29h-33V247.88H171.31ZM130.59,45.87h-3q-19.69,0-39.4,0a8.81,8.81,0,0,1-3.16-.46c-1.67-.65-2.15-2.08-2-3.79.19-2.49,1.55-2.89,3-3.13a15.13,15.13,0,0,1,2.2-.1h42.18V20.31h-2.89c-7.15,0-14.3,0-21.44,0-4.84,0-6.48-1.28-7.83-5.93a9,9,0,0,0-17.47,0c-1.4,4.73-3,6-8.1,6q-10.71,0-21.44,0c-.88,0-1.76.08-2.62.11V38.37H68c3.13,0,4.88,1.38,4.84,3.75S71,45.84,67.92,45.86c-3.41,0-6.82,0-10.23,0H48.6c-.55,5.24-.26,5.58,4.43,5.58h62.84c4,0,8-.05,12,0,1.91,0,2.77-.83,2.75-2.68C130.58,48,130.59,47.13,130.59,45.87Zm35.93,76c3.41-2.42,5.12-4.86,5.09-9-.23-28.78-.12-57.56-.13-86.34,0-1-.09-2.08-.14-3.12h-33v4.76h18.12c7.46,0,10.09,2.61,10.1,10v83.76Zm-18.68,41.72,34.85-34.86c-1.82-2-3.75-4.11-5.47-6L142.1,157.88Zm-34.56,23.27,5.29,5.72,23.58-23.49-5.55-5.64C128.73,171.34,120.9,179.19,113.28,186.85Zm80.89-58.56c-4.85,4.87-9.54,9.58-14.21,14.31a2.58,2.58,0,0,0-.89,1.43c-.09,3,0,6,0,8.76l19.87-19.74ZM133.55,229.9c7-2.67,17.8-13.41,19.49-19.59a28.51,28.51,0,0,1-14.32,2.79c-1.36-.06-2.3.25-2.23,1.86C136.69,220.06,136.16,225,133.55,229.9Zm49.19-112.81c1.88,1.91,3.89,3.93,5.72,5.78l5.86-5.49-5.9-6.26Zm-75,75.57c-2.6,3.64-5.06,7-7.37,10.41-.4.61-.18,1.63-.25,2.46.67.05,1.56.41,2,.11,3.66-2.48,7.24-5.08,10.76-7.58ZM204,106.53c-1.71-1.71-3.26-3.25-4.62-4.59l-4.39,4.3,4.43,4.85Z"/><path class="cls-1" d="M171.31,151.51v96.37H7.68V23.29h33v4.82H38c-5.74,0-11.48-.05-17.22,0-5.12.06-8.25,3.17-8.28,8.27,0,11.14,0,22.29,0,33.44,0,3,1.31,4.59,3.7,4.58S20,72.84,20,69.84c0-10.31,0-20.63,0-30.94V35.61h2.92c5,0,10,.18,15-.06,2.68-.14,3.23.82,3.09,3.24-.19,3.4-.09,6.82,0,10.23.11,6.1,4,9.91,10.07,9.92q38.55,0,77.09,0c6,0,9.84-3.78,10-9.76.12-4.24.07-8.48.1-12.72a2.58,2.58,0,0,1,.25-.65h20.46c0,.93.12,1.81.12,2.7q0,44.42,0,88.84a5.29,5.29,0,0,1-1.7,4.14C140.84,147.92,124.2,164.23,108,181c-5.49,5.7-9.93,12.46-14.53,19-2.52,3.55-1.62,8.22,1.47,11.15s7.53,3.58,11,1c7-5.19,14.15-10.27,20.5-16.19,10.34-9.63,20.09-19.9,30.08-29.89.64-.64,1.3-1.24,2.2-2.1a8.57,8.57,0,0,1,.26,1.37c0,7.65.14,15.31-.05,23-.24,10.08-7.67,17.22-17.77,17.37-1.33,0-2.66,0-4,0-4.88.07-8,3.21-8.21,8.14-.13,3,0,6-.66,8.91a16.76,16.76,0,0,1-15.9,12.86c-30.52.11-61,0-91.55,0a5.8,5.8,0,0,1-.89-.21v-3q0-70.87,0-141.75a14.38,14.38,0,0,0-.22-3.22,3.41,3.41,0,0,0-3.82-2.87,3.44,3.44,0,0,0-3.39,3.36c-.08.83-.06,1.67-.06,2.5V233.61c0,6.72,2.79,9.48,9.56,9.48,29.94,0,59.88.08,89.81,0a54.21,54.21,0,0,0,52-38.47,73.19,73.19,0,0,0,2.55-17.66c.41-8.89.37-17.81,0-26.7C166.22,156.08,168.26,153.87,171.31,151.51ZM81.47,130c-.84-.79-1.51-1.4-2.15-2-4.58-4.48-9.12-9-13.72-13.44-2.32-2.25-4.68-2.43-6.85-.38q-5.72,5.38-11.21,11a4.23,4.23,0,0,0,0,6.45q15.22,15.11,30.59,30.09a4.3,4.3,0,0,0,6.47.07c3.75-3.54,7.42-7.17,11-10.84a3.57,3.57,0,0,0,.15-5.34c-1.46-1.49-3.6-1.49-5.38,0a25.37,25.37,0,0,0-2,1.92c-2.2,2.36-4.38,4.74-6.89,7.46L56.21,128.36l6.58-7.14c4.77,5,9.52,10.17,14.39,15.17,3.15,3.24,5.27,3.18,8.46.05l29.55-29c.58-.57,1.19-1.11,1.82-1.68l7.18,7.38a13.3,13.3,0,0,0-2.11,1.45q-9.19,9-18.33,18c-2.12,2.1-2.37,4.19-.78,5.89s3.82,1.61,5.91-.44q11.06-10.82,22.06-21.69c2.6-2.58,2.57-5,0-7.58-3-3.06-6.16-6.07-9.26-9.09-3.76-3.67-5.59-3.64-9.38.08C102.09,109.77,91.89,119.79,81.47,130Z"/><path class="cls-2" d="M130.59,45.87c0,1.26,0,2.08,0,2.91,0,1.85-.84,2.71-2.75,2.68-4-.06-8,0-12,0H53c-4.69,0-5-.34-4.43-5.58h9.09c3.41,0,6.82,0,10.23,0,3.09,0,4.9-1.41,4.94-3.74S71.15,38.38,68,38.37H48.62V20.42c.86,0,1.74-.1,2.62-.11q10.73,0,21.44,0c5,0,6.7-1.24,8.1-6a9,9,0,0,1,17.47,0c1.35,4.65,3,5.92,7.83,5.93,7.14,0,14.29,0,21.44,0h2.89V38.37H88.23c-.75,0-1.59.08-2.2.1a2.92,2.92,0,0,0-3,3.13c0,1.71.34,3.14,2,3.79a8.81,8.81,0,0,0,3.16.46q19.7,0,39.4,0ZM93.18,16.59a3.69,3.69,0,0,0-7.37-.15,3.69,3.69,0,1,0,7.37.15Z"/><path class="cls-3" d="M166.52,121.86V38.1c0-7.38-2.64-10-10.1-10H138.3V23.35h33c0,1,.14,2.08.14,3.12,0,28.78-.1,57.56.13,86.34C171.64,117,169.93,119.44,166.52,121.86Z"/><path class="cls-3" d="M147.84,163.58l-5.74-5.7,35.12-35.14c1.72,1.87,3.65,4,5.47,6Z"/><path class="cls-1" d="M113.28,186.85c7.62-7.66,15.45-15.51,23.32-23.41l5.55,5.64-23.58,23.49Z"/><path class="cls-3" d="M133.55,229.9c2.61-4.86,3.14-9.84,2.94-14.94-.07-1.61.87-1.92,2.23-1.86A28.51,28.51,0,0,0,153,210.31C151.35,216.49,140.53,227.23,133.55,229.9Z"/><path class="cls-3" d="M182.74,117.09l5.68-6,5.9,6.26-5.86,5.49C186.63,121,184.62,119,182.74,117.09Z"/><path class="cls-2" d="M107.72,192.66l5.13,5.4c-3.52,2.5-7.1,5.1-10.76,7.58-.43.3-1.32-.06-2-.11.07-.83-.15-1.85.25-2.46C102.66,199.64,105.12,196.3,107.72,192.66Z"/><path class="cls-2" d="M204,106.53l-4.58,4.56L195,106.24l4.39-4.3C200.71,103.28,202.26,104.82,204,106.53Z"/><path d="M81.47,130c10.42-10.24,20.62-20.26,30.81-30.29,3.79-3.72,5.62-3.75,9.38-.08,3.1,3,6.21,6,9.26,9.09,2.59,2.61,2.62,5,0,7.58Q120,127.22,108.88,138c-2.09,2-4.28,2.17-5.91.44s-1.34-3.79.78-5.89q9.14-9,18.33-18a13.3,13.3,0,0,1,2.11-1.45L117,105.73c-.63.57-1.24,1.11-1.82,1.68l-29.55,29c-3.19,3.13-5.31,3.19-8.46-.05-4.87-5-9.62-10.13-14.39-15.17l-6.58,7.14L81.57,155c2.51-2.72,4.69-5.1,6.89-7.46a25.37,25.37,0,0,1,2-1.92c1.78-1.53,3.92-1.53,5.38,0a3.57,3.57,0,0,1-.15,5.34c-3.61,3.67-7.28,7.3-11,10.84a4.3,4.3,0,0,1-6.47-.07q-15.36-15-30.59-30.09a4.23,4.23,0,0,1,0-6.45q5.49-5.62,11.21-11c2.17-2.05,4.53-1.87,6.85.38,4.6,4.45,9.14,9,13.72,13.44C80,128.63,80.63,129.24,81.47,130Z"/><path d="M93.18,16.59a3.69,3.69,0,1,1-7.37-.15,3.69,3.69,0,0,1,7.37.15Z"/></g></g></svg>