<svg xmlns="http://www.w3.org/2000/svg" viewBox="0 0 24.65 24.4"><defs><style>.cls-1{fill:#fff;}</style></defs><title>Asset 3</title><g id="Layer_2" data-name="Layer 2"><g id="LANDING"><path class="cls-1" d="M18.92,24.4c.64-.07,1.24,0,1.61-.21a19.84,19.84,0,0,0,4.1-3.25c.23-.26-1.3-2-2-3.07a1.66,1.66,0,0,0-.26-.27c-3-2.93-2.55-3.31-5.63,0-1.19,1.26-2.43,1.44-3.74.28-1.67-1.47-3.39-2.9-4.91-4.51-3-3.16-2.91-3.57.09-6.63l.53-.52a1.37,1.37,0,0,0,0-2.24C7.48,2.73,6.34,1.4,5,.32A2.14,2.14,0,0,0,3,.2,6.81,6.81,0,0,0,.62,8.76,26.65,26.65,0,0,0,9.24,20C12.14,22.22,15.29,24,18.92,24.4Z"/></g></g></svg>