<svg xmlns="http://www.w3.org/2000/svg" viewBox="0 0 247.6 235.38"><defs><style>.cls-1{fill:#acb3d8;}.cls-2{fill:#8083c5;}.cls-3{fill:#565d91;}</style></defs><title>registro</title><g id="Layer_2" data-name="Layer 2"><g id="LANDING"><path d="M162.71,103.91H111.86v2.69q0,14.1,0,28.2c0,8-5,13-12.9,13q-43.05,0-86.11,0C5,147.76,0,142.76,0,135q0-27.21,0-54.41C0,73,5.07,67.91,12.69,67.9c12.06,0,24.13,0,36.19,0h3V5.71C51.93,1.14,53.09,0,57.7,0H222c4.58,0,5.74,1.16,5.74,5.75q0,37.42,0,74.87a4,4,0,0,0,1.8,3.7c14.78,10.62,21.26,28.88,16.7,46.8a43.81,43.81,0,0,1-36.75,32.22c-31.95,4.22-57.47-26.44-47.5-57.08C162.14,105.56,162.38,104.86,162.71,103.91Zm25.18-83.83H91.63Q87.9,36,72,39.7V64c2.41.92,4.62,1.86,6.9,2.6a20.13,20.13,0,0,0,5.4,1.28c5.15.17,10.31,0,15.46.08a12,12,0,0,1,12,12c0,1.22,0,2.45,0,3.91h2.92c19.79,0,39.58,0,59.37,0,2.73,0,5.15-.28,7.48-2,1.87-1.33,4.2-2,6.21-3.12a7.7,7.7,0,0,0,2.81-2.49,24.2,24.2,0,0,1,14.45-11.49l2.45-.73V39.65C196.71,36.85,191.73,31.88,187.89,20.08Zm15.72,63.8a35.93,35.93,0,1,0,36,36A36,36,0,0,0,203.61,83.88ZM8,107.92c0,9.07,0,17.87,0,26.67,0,3.86,1.35,5.18,5.3,5.18H98.6c3.91,0,5.25-1.34,5.25-5.23q0-12.22,0-24.44c0-.71-.09-1.43-.14-2.18ZM60.11,8.1V67.77h3.81V65q0-13.86,0-27.7c0-3.88,1.12-5.08,4.9-5.35a16.06,16.06,0,0,0,15-15c.27-3.82,1.46-5,5.29-5H190.46c3.83,0,5,1.15,5.3,5a16.06,16.06,0,0,0,15,15c3.77.26,4.9,1.48,4.9,5.35q0,14.48,0,28.94c0,4.36-.92,5.28-5.3,5.75-3.18.34-6.17,1.24-8.33,3.35l17.48,2.88V8.1Zm-52,91.58h95.53V92H8.13Zm95.56-15.9c.61-6.85-.34-7.89-6.87-7.89H14a15.88,15.88,0,0,0-2.49.06,3.75,3.75,0,0,0-3.45,3.4,36.28,36.28,0,0,0,0,4.43ZM169.38,92H112v3.8h2.81c16.06,0,32.12-.09,48.17.09C166.12,96,168.19,95.17,169.38,92Z"/><path d="M82.29,188.35c1.36-4.47,4.77-6.71,8.46-8.82q18.84-10.72,37.55-21.7a14.57,14.57,0,0,1,12.62-1.4c16.12,5.16,32.3,10.16,48.72,15.3.36-1,.72-2,1.05-3,1.11-3.27,2.77-4.14,6.12-3.12,4.45,1.36,8.89,2.73,13.32,4.14,3.57,1.13,4.46,2.84,3.35,6.42q-5,16.05-10,32.09c-2,6.42-4,12.84-6,19.25-1.1,3.45-2.77,4.31-6.24,3.25-4.21-1.29-8.41-2.61-12.6-3.93-4.39-1.38-5.13-2.77-3.81-7.18.19-.62.34-1.25.54-2-3.29-1.61-6.21-2.09-9.69-.2-10.22,5.55-20.67,10.66-31,16.08a14.74,14.74,0,0,1-12,1q-40.5-12.76-81.05-25.37c-8.42-2.63-11.53-8.54-8.9-17,.57-1.83,1.13-3.65,1.72-5.47,2.34-7.28,8.55-10.58,15.86-8.33,10.16,3.13,20.29,6.32,30.43,9.49Zm105.06-9c-17-5.3-33.71-10.54-50.45-15.66a5,5,0,0,0-3.52.54Q112.7,176.05,92.13,188c-2.34,1.36-2.8,3.26-1.59,5.75.84,1.71,1.77,3.38,2.66,5.08,2.22,4.23,3.68,4.68,7.92,2.45q14.77-7.75,29.57-15.49c2.6-1.36,4.93-.74,6,1.44s.25,4.27-2.21,5.57c-10.5,5.54-21,11.12-31.58,16.5-6,3-12.56.81-15.87-5-1.11-2-2-4-3.18-5.93a3.93,3.93,0,0,0-2-1.68q-17.2-5.47-34.46-10.79c-2.45-.75-4.26.21-5.16,2.62-.69,1.87-1.23,3.79-1.82,5.69-1.41,4.56-.69,6,3.78,7.4Q84.8,214.32,125.32,227a6.69,6.69,0,0,0,5.48-.46c10.16-5.29,20.46-10.34,30.52-15.83,5-2.71,9.75-3.52,15-1.33a8.52,8.52,0,0,0,1.57.31Zm10-5.23c-4.78,15.29-9.51,30.43-14.27,45.69l7.58,2.39L205,176.51Z"/><path class="cls-1" d="M187.89,20.08c3.84,11.8,8.82,16.77,19.65,19.57V64.12l-2.45.73a24.2,24.2,0,0,0-14.45,11.49,7.7,7.7,0,0,1-2.81,2.49c-2,1.14-4.34,1.79-6.21,3.12-2.33,1.67-4.75,2-7.48,2-19.79-.07-39.58,0-59.37,0h-2.92c0-1.46,0-2.69,0-3.91a12,12,0,0,0-12-12c-5.15-.07-10.31.09-15.46-.08a20.13,20.13,0,0,1-5.4-1.28c-2.28-.74-4.49-1.68-6.9-2.6V39.7Q87.87,36,91.63,20.08Zm-48,7.88a24,24,0,1,0,23.86,24.32A24,24,0,0,0,139.91,28Z"/><path class="cls-2" d="M203.61,83.88A35.93,35.93,0,1,1,167.78,120,36,36,0,0,1,203.61,83.88Zm4.25,56c.29-.06.53-.12.77-.15,7-1,11.5-6.3,11-12.77-.44-6.28-6-11.1-12.8-11.17-2.08,0-4.16,0-6.24,0-3.09,0-4.94-1.59-4.87-4.09s1.84-3.86,4.82-3.88c4.9,0,9.81,0,14.71,0,2.7,0,4.44-1.73,4.39-4.07s-1.74-3.83-4.31-3.89-5,0-7.41,0c-1.13-2.89-2.22-4.17-4.05-3.88a5.53,5.53,0,0,0-3.57,2.1,3.8,3.8,0,0,1-2.89,2A11.9,11.9,0,0,0,187.78,113a12.06,12.06,0,0,0,12,10.8c2.33,0,4.66,0,7,0,2.93.06,5,1.87,4.92,4.19s-1.93,3.76-4.94,3.77c-4.83,0-9.65,0-14.47,0-2.76,0-4.48,1.59-4.51,3.94s1.7,4,4.41,4c2.41,0,4.82,0,7.33,0,.65,2.26,1.79,4.07,4.4,3.95C206.26,143.63,207.32,142,207.86,139.91Z"/><path class="cls-3" d="M8,107.92h95.7c.05.75.14,1.47.14,2.18q0,12.23,0,24.44c0,3.89-1.34,5.23-5.25,5.23H13.31c-4,0-5.29-1.32-5.3-5.18C8,125.79,8,117,8,107.92Z"/><path class="cls-2" d="M60.11,8.1H219.55V78.19l-17.48-2.88c2.16-2.11,5.15-3,8.33-3.35,4.38-.47,5.3-1.39,5.3-5.75q0-14.46,0-28.94c0-3.87-1.13-5.09-4.9-5.35a16.06,16.06,0,0,1-15-15c-.26-3.81-1.47-5-5.3-5H89.15c-3.83,0-5,1.14-5.29,5a16.06,16.06,0,0,1-15,15c-3.78.27-4.9,1.47-4.9,5.35q0,13.84,0,27.7v2.8H60.11Z"/><path class="cls-1" d="M8.13,99.68V92h95.53v7.7Z"/><path class="cls-2" d="M103.69,83.78H8.06a36.28,36.28,0,0,1,0-4.43A3.75,3.75,0,0,1,11.54,76,15.88,15.88,0,0,1,14,75.89H96.82C103.35,75.89,104.3,76.93,103.69,83.78Z"/><path class="cls-1" d="M169.38,92c-1.19,3.13-3.26,3.92-6.42,3.89-16.05-.18-32.11-.09-48.17-.09H112V92Z"/><path class="cls-1" d="M187.35,179.38l-9.47,30.3a8.52,8.52,0,0,1-1.57-.31c-5.24-2.19-10-1.38-15,1.33-10.06,5.49-20.36,10.54-30.52,15.83a6.69,6.69,0,0,1-5.48.46q-40.53-12.7-81.07-25.35c-4.47-1.4-5.19-2.84-3.78-7.4.59-1.9,1.13-3.82,1.82-5.69.9-2.41,2.71-3.37,5.16-2.62q17.25,5.32,34.46,10.79a3.93,3.93,0,0,1,2,1.68c1.15,1.92,2.07,4,3.18,5.93,3.31,5.82,9.92,8,15.87,5,10.59-5.38,21.08-11,31.58-16.5,2.46-1.3,3.25-3.48,2.21-5.57s-3.41-2.8-6-1.44q-14.81,7.71-29.57,15.49c-4.24,2.23-5.7,1.78-7.92-2.45-.89-1.7-1.82-3.37-2.66-5.08-1.21-2.49-.75-4.39,1.59-5.75q20.6-12,41.25-23.78a5,5,0,0,1,3.52-.54C153.64,168.84,170.35,174.08,187.35,179.38Z"/><path class="cls-2" d="M197.39,174.15l7.59,2.36L190.7,222.23l-7.58-2.39C187.88,204.58,192.61,189.44,197.39,174.15Z"/><path d="M139.91,28a24,24,0,1,1-24.07,23.6A24,24,0,0,1,139.91,28Zm15.86,23.93a16,16,0,1,0-16,16A16,16,0,0,0,155.77,51.89Z"/><path d="M207.86,139.91c-.54,2.07-1.6,3.72-4,3.82-2.61.12-3.75-1.69-4.4-3.95-2.51,0-4.92,0-7.33,0-2.71-.06-4.44-1.68-4.41-4s1.75-3.92,4.51-3.94c4.82,0,9.64,0,14.47,0,3,0,4.84-1.43,4.94-3.77s-2-4.13-4.92-4.19c-2.32,0-4.65,0-7,0a12.06,12.06,0,0,1-12-10.8,11.9,11.9,0,0,1,9.67-12.89,3.8,3.8,0,0,0,2.89-2,5.53,5.53,0,0,1,3.57-2.1c1.83-.29,2.92,1,4.05,3.88,2.44,0,4.93,0,7.41,0s4.26,1.63,4.31,3.89-1.69,4-4.39,4.07c-4.9.05-9.81,0-14.71,0-3,0-4.76,1.48-4.82,3.88s1.78,4.06,4.87,4.09c2.08,0,4.16,0,6.24,0,6.84.07,12.36,4.89,12.8,11.17.46,6.47-4.09,11.74-11,12.77C208.39,139.79,208.15,139.85,207.86,139.91Z"/><path class="cls-3" d="M155.77,51.89A16,16,0,1,1,139.72,36,16,16,0,0,1,155.77,51.89Z"/></g></g></svg>